
<svg width="100" height="100">
  <!-- Background -->
  <g>
    <rect width="100" height="100" x="0" y="0" fill="#ffffff"/>
  </g>

  <!-- Edges -->
  <g>
    <line x1="50" y1="20" x2="25" y2="40" fill="#009900" stroke-width="2" stroke="#009900"/>
    <line x1="50" y1="20" x2="25" y2="60" fill="#009900" stroke-width="2" stroke="#009900"/>
    <line x1="50" y1="20" x2="75" y2="40" fill="#009900" stroke-width="2" stroke="#009900"/>
    <line x1="25" y1="40" x2="25" y2="60" fill="#009900" stroke-width="2" stroke="#009900"/>
    <line x1="25" y1="40" x2="75" y2="40" fill="#009900" stroke-width="2" stroke="#009900"/>
    <line x1="75" y1="40" x2="25" y2="60" fill="#009900" stroke-width="2" stroke="#009900"/>
    <line x1="75" y1="40" x2="75" y2="60" fill="#303030" stroke-width="2" stroke="#303030"/>
    <line x1="25" y1="60" x2="50" y2="80" fill="#303030" stroke-width="2" stroke="#303030"/>
    <line x1="75" y1="60" x2="50" y2="80" fill="#303030" stroke-width="2" stroke="#303030"/>
  </g>
  <!-- Vertices -->
  <g>
    <circle cx="50" cy="20" r="5" fill="#009900" />
    <circle cx="50" cy="80" r="5" fill="#303030" />
    <circle cx="25" cy="40" r="5" fill="#009900" />
    <circle cx="25" cy="60" r="5" fill="#009900" />
    <circle cx="75" cy="40" r="5" fill="#009900" />
    <circle cx="75" cy="60" r="5" fill="#303030" />
  </g>

</svg>
